<svg width="240" height="74" viewBox="0 0 240 74" fill="none" xmlns="http://www.w3.org/2000/svg">
<path d="M36 70.4C53.894 70.4 68.4 55.894 68.4 38C68.4 20.1059 53.894 5.59998 36 5.59998C18.1059 5.59998 3.59998 20.1059 3.59998 38C3.59998 55.894 18.1059 70.4 36 70.4Z" stroke="#10B981" stroke-opacity="0.15" stroke-width="0.675" stroke-dasharray="1.8 1.8"/>
<path d="M36 65.9C51.4087 65.9 63.9 53.4087 63.9 38C63.9 22.5912 51.4087 10.1 36 10.1C20.5912 10.1 8.09998 22.5912 8.09998 38C8.09998 53.4087 20.5912 65.9 36 65.9Z" stroke="black" stroke-opacity="0.1" stroke-width="0.45"/>
<path d="M36 2V74" stroke="black" stroke-opacity="0.05" stroke-width="0.45" stroke-dasharray="0.9 0.9"/>
<path d="M0 38H72" stroke="black" stroke-opacity="0.05" stroke-width="0.45" stroke-dasharray="0.9 0.9"/>
<path d="M36 60.5C48.4264 60.5 58.5 50.4264 58.5 38C58.5 25.5736 48.4264 15.5 36 15.5C23.5736 15.5 13.5 25.5736 13.5 38C13.5 50.4264 23.5736 60.5 36 60.5Z" stroke="#10B981" stroke-opacity="0.3" stroke-width="0.45"/>
<path d="M36 17.75C37.2426 17.75 38.25 16.7426 38.25 15.5C38.25 14.2574 37.2426 13.25 36 13.25C34.7574 13.25 33.75 14.2574 33.75 15.5C33.75 16.7426 34.7574 17.75 36 17.75Z" fill="#10B981"/>
<path d="M20.25 53.75C13.5 38 24.75 22.25 51.75 22.25C58.5 38 47.25 53.75 20.25 53.75Z" fill="url(#paint0_linear_1041_18)"/>
<path d="M20.25 53.75C30.75 43.25 41.25 32.75 51.75 22.25" stroke="black" stroke-opacity="0.25" stroke-width="1.125" stroke-linecap="round"/>
<path d="M36 8.29999C37.4912 8.29999 38.7 7.09116 38.7 5.59999C38.7 4.10883 37.4912 2.89999 36 2.89999C34.5088 2.89999 33.3 4.10883 33.3 5.59999C33.3 7.09116 34.5088 8.29999 36 8.29999Z" fill="url(#paint1_linear_1041_18)"/>
<path d="M36 9.64999C38.2368 9.64999 40.05 7.83674 40.05 5.59999C40.05 3.36323 38.2368 1.54999 36 1.54999C33.7633 1.54999 31.95 3.36323 31.95 5.59999C31.95 7.83674 33.7633 9.64999 36 9.64999Z" stroke="#10B981" stroke-opacity="0.6" stroke-width="0.675"/>
<path d="M85.172 54V14.636H91.984V40.428L89.384 39.648L102.696 25.712H111.172L100.72 37.1L111.38 54H103.58L94.324 39.336L98.38 38.504L89.852 47.656L91.984 43.496V54H85.172ZM115.184 54V25.712H121.58V32.004L121.06 31.068C121.718 28.9533 122.741 27.48 124.128 26.648C125.549 25.816 127.248 25.4 129.224 25.4H130.888V31.432H128.444C126.502 31.432 124.942 32.0387 123.764 33.252C122.585 34.4307 121.996 36.0947 121.996 38.244V54H115.184ZM148.465 54.624C145.692 54.624 143.161 53.9827 140.873 52.7C138.62 51.4173 136.817 49.6667 135.465 47.448C134.148 45.2293 133.489 42.6987 133.489 39.856C133.489 37.0133 134.148 34.4827 135.465 32.264C136.817 30.0453 138.62 28.2947 140.873 27.012C143.126 25.7293 145.657 25.088 148.465 25.088C151.238 25.088 153.752 25.7293 156.005 27.012C158.258 28.2947 160.044 30.0453 161.361 32.264C162.713 34.448 163.389 36.9787 163.389 39.856C163.389 42.6987 162.713 45.2293 161.361 47.448C160.009 49.6667 158.206 51.4173 155.953 52.7C153.7 53.9827 151.204 54.624 148.465 54.624ZM148.465 48.384C149.99 48.384 151.325 48.02 152.469 47.292C153.648 46.564 154.566 45.5587 155.225 44.276C155.918 42.9587 156.265 41.4853 156.265 39.856C156.265 38.192 155.918 36.736 155.225 35.488C154.566 34.2053 153.648 33.2 152.469 32.472C151.325 31.7093 149.99 31.328 148.465 31.328C146.905 31.328 145.536 31.7093 144.357 32.472C143.178 33.2 142.242 34.2053 141.549 35.488C140.89 36.736 140.561 38.192 140.561 39.856C140.561 41.4853 140.89 42.9587 141.549 44.276C142.242 45.5587 143.178 46.564 144.357 47.292C145.536 48.02 146.905 48.384 148.465 48.384ZM168.555 64.4V25.712H174.951V31.328L174.327 29.924C175.297 28.3987 176.615 27.22 178.279 26.388C179.943 25.5213 181.867 25.088 184.051 25.088C186.72 25.088 189.129 25.7467 191.279 27.064C193.428 28.3813 195.127 30.1493 196.375 32.368C197.657 34.5867 198.299 37.0827 198.299 39.856C198.299 42.5947 197.675 45.0907 196.427 47.344C195.179 49.5973 193.48 51.3827 191.331 52.7C189.181 53.9827 186.737 54.624 183.999 54.624C181.953 54.624 180.064 54.2253 178.331 53.428C176.632 52.596 175.28 51.4173 174.275 49.892L175.367 48.54V64.4H168.555ZM183.219 48.384C184.779 48.384 186.165 48.02 187.379 47.292C188.592 46.564 189.528 45.5587 190.187 44.276C190.88 42.9933 191.227 41.52 191.227 39.856C191.227 38.192 190.88 36.736 190.187 35.488C189.528 34.2053 188.592 33.2 187.379 32.472C186.165 31.7093 184.779 31.328 183.219 31.328C181.728 31.328 180.376 31.692 179.163 32.42C177.984 33.148 177.048 34.1707 176.355 35.488C175.696 36.7707 175.367 38.2267 175.367 39.856C175.367 41.52 175.696 42.9933 176.355 44.276C177.048 45.5587 177.984 46.564 179.163 47.292C180.376 48.02 181.728 48.384 183.219 48.384ZM206.417 65.44C205.654 65.44 204.909 65.3707 204.181 65.232C203.453 65.128 202.794 64.92 202.205 64.608V58.94C202.655 59.044 203.193 59.148 203.817 59.252C204.475 59.356 205.082 59.408 205.637 59.408C207.197 59.408 208.323 59.044 209.017 58.316C209.745 57.6227 210.386 56.6867 210.941 55.508L212.812 51.14L212.709 56.86L200.385 25.712H207.717L216.349 48.696H213.749L222.329 25.712H229.713L217.389 56.86C216.661 58.6627 215.777 60.2053 214.737 61.488C213.696 62.7707 212.483 63.7413 211.097 64.4C209.745 65.0933 208.185 65.44 206.417 65.44Z" fill="white"/>
<path d="M226 47.5C229.038 47.5 231.5 45.0376 231.5 42C231.5 38.9624 229.038 36.5 226 36.5C222.962 36.5 220.5 38.9624 220.5 42C220.5 45.0376 222.962 47.5 226 47.5Z" fill="#10B981"/>
<defs>
<linearGradient id="paint0_linear_1041_18" x1="9.00002" y1="65" x2="63" y2="11" gradientUnits="userSpaceOnUse">
<stop stop-color="#10B981"/>
<stop offset="1" stop-color="#34D399"/>
</linearGradient>
<linearGradient id="paint1_linear_1041_18" x1="36" y1="1.99999" x2="36" y2="11" gradientUnits="userSpaceOnUse">
<stop stop-color="white"/>
<stop offset="1" stop-color="#10B981"/>
</linearGradient>
</defs>
</svg>
