<svg width="110" height="157" viewBox="0 0 110 157" fill="none" xmlns="http://www.w3.org/2000/svg">
<path d="M55 87.6C76.8705 87.6 94.6 69.8705 94.6 48C94.6 26.1295 76.8705 8.40002 55 8.40002C33.1295 8.40002 15.4 26.1295 15.4 48C15.4 69.8705 33.1295 87.6 55 87.6Z" stroke="#10B981" stroke-opacity="0.15" stroke-width="0.825" stroke-dasharray="2.2 2.2"/>
<path d="M55 82.1C73.8329 82.1 89.1 66.8329 89.1 48C89.1 29.1671 73.8329 13.9 55 13.9C36.1671 13.9 20.9 29.1671 20.9 48C20.9 66.8329 36.1671 82.1 55 82.1Z" stroke="black" stroke-opacity="0.1" stroke-width="0.55"/>
<path d="M55 4V92" stroke="black" stroke-opacity="0.05" stroke-width="0.55" stroke-dasharray="1.1 1.1"/>
<path d="M11 48H99" stroke="black" stroke-opacity="0.05" stroke-width="0.55" stroke-dasharray="1.1 1.1"/>
<path d="M55 75.5C70.1878 75.5 82.5 63.1878 82.5 48C82.5 32.8122 70.1878 20.5 55 20.5C39.8122 20.5 27.5 32.8122 27.5 48C27.5 63.1878 39.8122 75.5 55 75.5Z" stroke="#10B981" stroke-opacity="0.3" stroke-width="0.55"/>
<path d="M55 23.25C56.5188 23.25 57.75 22.0188 57.75 20.5C57.75 18.9812 56.5188 17.75 55 17.75C53.4812 17.75 52.25 18.9812 52.25 20.5C52.25 22.0188 53.4812 23.25 55 23.25Z" fill="#10B981"/>
<path d="M35.75 67.25C27.5 48 41.25 28.75 74.25 28.75C82.5 48 68.75 67.25 35.75 67.25Z" fill="url(#paint0_linear_1041_2)"/>
<path d="M35.75 67.25C48.5833 54.4167 61.4167 41.5833 74.25 28.75" stroke="black" stroke-opacity="0.25" stroke-width="1.375" stroke-linecap="round"/>
<path d="M55 11.7C56.8226 11.7 58.3 10.2225 58.3 8.40001C58.3 6.57747 56.8226 5.10001 55 5.10001C53.1775 5.10001 51.7 6.57747 51.7 8.40001C51.7 10.2225 53.1775 11.7 55 11.7Z" fill="url(#paint1_linear_1041_2)"/>
<path d="M55 13.35C57.7338 13.35 59.95 11.1338 59.95 8.40001C59.95 5.6662 57.7338 3.45001 55 3.45001C52.2662 3.45001 50.05 5.6662 50.05 8.40001C50.05 11.1338 52.2662 13.35 55 13.35Z" stroke="#10B981" stroke-opacity="0.6" stroke-width="0.825"/>
<path d="M9.09744 129V103.262H13.5514V120.126L11.8514 119.616L20.5554 110.504H26.0974L19.2634 117.95L26.2334 129H21.1334L15.0814 119.412L17.7334 118.868L12.1574 124.852L13.5514 122.132V129H9.09744ZM28.7205 129V110.504H32.9025V114.618L32.5625 114.006C32.9932 112.623 33.6618 111.66 34.5685 111.116C35.4978 110.572 36.6085 110.3 37.9005 110.3H38.9885V114.244H37.3905C36.1212 114.244 35.1012 114.641 34.3305 115.434C33.5598 116.205 33.1745 117.293 33.1745 118.698V129H28.7205ZM50.4813 129.408C48.6679 129.408 47.0133 128.989 45.5173 128.15C44.0439 127.311 42.8653 126.167 41.9813 124.716C41.1199 123.265 40.6893 121.611 40.6893 119.752C40.6893 117.893 41.1199 116.239 41.9813 114.788C42.8653 113.337 44.0439 112.193 45.5173 111.354C46.9906 110.515 48.6453 110.096 50.4813 110.096C52.2946 110.096 53.9379 110.515 55.4113 111.354C56.8846 112.193 58.0519 113.337 58.9133 114.788C59.7973 116.216 60.2393 117.871 60.2393 119.752C60.2393 121.611 59.7973 123.265 58.9133 124.716C58.0293 126.167 56.8506 127.311 55.3773 128.15C53.9039 128.989 52.2719 129.408 50.4813 129.408ZM50.4813 125.328C51.4786 125.328 52.3513 125.09 53.0993 124.614C53.8699 124.138 54.4706 123.481 54.9013 122.642C55.3546 121.781 55.5813 120.817 55.5813 119.752C55.5813 118.664 55.3546 117.712 54.9013 116.896C54.4706 116.057 53.8699 115.4 53.0993 114.924C52.3513 114.425 51.4786 114.176 50.4813 114.176C49.4613 114.176 48.5659 114.425 47.7953 114.924C47.0246 115.4 46.4126 116.057 45.9593 116.896C45.5286 117.712 45.3133 118.664 45.3133 119.752C45.3133 120.817 45.5286 121.781 45.9593 122.642C46.4126 123.481 47.0246 124.138 47.7953 124.614C48.5659 125.09 49.4613 125.328 50.4813 125.328ZM63.617 135.8V110.504H67.799V114.176L67.391 113.258C68.0256 112.261 68.887 111.49 69.975 110.946C71.063 110.379 72.321 110.096 73.749 110.096C75.4943 110.096 77.0696 110.527 78.475 111.388C79.8803 112.249 80.991 113.405 81.807 114.856C82.6456 116.307 83.065 117.939 83.065 119.752C83.065 121.543 82.657 123.175 81.841 124.648C81.025 126.121 79.9143 127.289 78.509 128.15C77.1036 128.989 75.5056 129.408 73.715 129.408C72.3776 129.408 71.1423 129.147 70.009 128.626C68.8983 128.082 68.0143 127.311 67.357 126.314L68.071 125.43V135.8H63.617ZM73.205 125.328C74.225 125.328 75.1316 125.09 75.925 124.614C76.7183 124.138 77.3303 123.481 77.761 122.642C78.2143 121.803 78.441 120.84 78.441 119.752C78.441 118.664 78.2143 117.712 77.761 116.896C77.3303 116.057 76.7183 115.4 75.925 114.924C75.1316 114.425 74.225 114.176 73.205 114.176C72.2303 114.176 71.3463 114.414 70.553 114.89C69.7823 115.366 69.1703 116.035 68.717 116.896C68.2863 117.735 68.071 118.687 68.071 119.752C68.071 120.84 68.2863 121.803 68.717 122.642C69.1703 123.481 69.7823 124.138 70.553 124.614C71.3463 125.09 72.2303 125.328 73.205 125.328ZM88.3727 136.48C87.874 136.48 87.3867 136.435 86.9107 136.344C86.4347 136.276 86.004 136.14 85.6187 135.936V132.23C85.9134 132.298 86.2647 132.366 86.6727 132.434C87.1034 132.502 87.5 132.536 87.8627 132.536C88.8827 132.536 89.6194 132.298 90.0727 131.822C90.5487 131.369 90.968 130.757 91.3307 129.986L92.5547 127.13L92.4867 130.87L84.4287 110.504H89.2227L94.8667 125.532H93.1667L98.7767 110.504H103.605L95.5467 130.87C95.0707 132.049 94.4927 133.057 93.8127 133.896C93.1327 134.735 92.3394 135.369 91.4327 135.8C90.5487 136.253 89.5287 136.48 88.3727 136.48Z" fill="white"/>
<path d="M105 104.5C107.485 104.5 109.5 102.485 109.5 100C109.5 97.5147 107.485 95.5 105 95.5C102.515 95.5 100.5 97.5147 100.5 100C100.5 102.485 102.515 104.5 105 104.5Z" fill="#10B981"/>
<defs>
<linearGradient id="paint0_linear_1041_2" x1="22" y1="81" x2="88" y2="15" gradientUnits="userSpaceOnUse">
<stop stop-color="#10B981"/>
<stop offset="1" stop-color="#34D399"/>
</linearGradient>
<linearGradient id="paint1_linear_1041_2" x1="55" y1="4.00001" x2="55" y2="15" gradientUnits="userSpaceOnUse">
<stop stop-color="white"/>
<stop offset="1" stop-color="#10B981"/>
</linearGradient>
</defs>
</svg>
